<svg xmlns="http://www.w3.org/2000/svg" viewBox="0 0 150.27 50.9"><defs><style>.cls-1{fill:#12100b;}</style></defs><title>logo</title><g id="standard_chinese" data-name="standardchinese"><path class="cls-1" d="M92.55,29.66v2.62a3.53,3.53,0,0,0-2.15-.76,1.78,1.78,0,0,0-.7.13,2,2,0,0,0-.57.36,1.75,1.75,0,0,0-.38.54,1.67,1.67,0,0,0-.14.67c0,.72.66,1.58,2,2.57a15.1,15.1,0,0,1,1.32,1.15,5,5,0,0,1,.8,1,4.37,4.37,0,0,1,.57,2.33,4.51,4.51,0,0,1-1.18,3.27,4.2,4.2,0,0,1-3.15,1.21A5,5,0,0,1,86.48,44V41.32a3.91,3.91,0,0,0,2.3.9,1.68,1.68,0,0,0,1.91-1.89,2.05,2.05,0,0,0-.35-1.21,3,3,0,0,0-.51-.58c-.23-.22-.52-.47-.86-.74a11.46,11.46,0,0,1-2.41-2.31A4.26,4.26,0,0,1,86,33.16a4.15,4.15,0,0,1,1.13-3,4,4,0,0,1,3-1.15A5.17,5.17,0,0,1,92.55,29.66Z" transform="translate(-17.35 -19.62)"/><path class="cls-1" d="M96,25.1h2.79v4.25h1.53v2.23H98.79V44.51H96V31.58H94.46V29.35H96Z" transform="translate(-17.35 -19.62)"/><path class="cls-1" d="M111,29.35V44.51h-2.8V42.56a5,5,0,0,1-1.2,1.72,2.51,2.51,0,0,1-1.58.46,2.9,2.9,0,0,1-2.77-1.93,15.66,15.66,0,0,1-.88-6.06,14.43,14.43,0,0,1,.88-5.8,2.91,2.91,0,0,1,2.77-1.85,3.13,3.13,0,0,1,2.78,2V29.35Zm-6.33,7.51a15.09,15.09,0,0,0,.4,4.18,1.47,1.47,0,0,0,1.43,1.18c.63,0,1.08-.41,1.37-1.23a14.33,14.33,0,0,0,.42-4.05,14.53,14.53,0,0,0-.42-4.08c-.29-.82-.74-1.23-1.37-1.23a1.5,1.5,0,0,0-1.42,1.18A13.33,13.33,0,0,0,104.68,36.86Z" transform="translate(-17.35 -19.62)"/><path class="cls-1" d="M114.19,29.35H117v1.74a3.54,3.54,0,0,1,3.1-2,2.77,2.77,0,0,1,2.64,1.45,7.72,7.72,0,0,1,.44,3.18V44.51h-2.8V34.37a4.63,4.63,0,0,0-.37-2.18,1.32,1.32,0,0,0-1.26-.64,1.8,1.8,0,0,0-.81.16,1.36,1.36,0,0,0-.54.55,3.37,3.37,0,0,0-.3,1,10.18,10.18,0,0,0-.09,1.48v9.8h-2.8Z" transform="translate(-17.35 -19.62)"/><path class="cls-1" d="M135,19.62V44.51h-2.8V42.56a5,5,0,0,1-1.2,1.72,2.52,2.52,0,0,1-1.59.46,2.9,2.9,0,0,1-2.76-1.92,15.66,15.66,0,0,1-.88-6.06,24.23,24.23,0,0,1,.22-3.44,8.67,8.67,0,0,1,.67-2.39,3.2,3.2,0,0,1,1.15-1.38,3,3,0,0,1,1.67-.45,2.53,2.53,0,0,1,1.52.44,2.94,2.94,0,0,1,.6.58,5.45,5.45,0,0,1,.6.94V19.62Zm-6.33,17.24a14.7,14.7,0,0,0,.4,4.18,1.47,1.47,0,0,0,1.43,1.18c.63,0,1.08-.41,1.37-1.23a14.33,14.33,0,0,0,.42-4.05,14.53,14.53,0,0,0-.42-4.08c-.29-.82-.74-1.23-1.37-1.23a1.5,1.5,0,0,0-1.42,1.18A13.33,13.33,0,0,0,128.66,36.86Z" transform="translate(-17.35 -19.62)"/><path class="cls-1" d="M146.83,29.35V44.51H144V42.56a5,5,0,0,1-1.2,1.72,2.51,2.51,0,0,1-1.58.46,2.89,2.89,0,0,1-2.77-1.93,15.47,15.47,0,0,1-.88-6.06,14.25,14.25,0,0,1,.88-5.8,2.9,2.9,0,0,1,2.77-1.85,3.13,3.13,0,0,1,2.78,2V29.35Zm-6.33,7.51a15.2,15.2,0,0,0,.39,4.18,1.49,1.49,0,0,0,1.44,1.18c.63,0,1.08-.41,1.36-1.23a13.9,13.9,0,0,0,.43-4.05,14.09,14.09,0,0,0-.43-4.08c-.28-.82-.73-1.23-1.36-1.23a1.49,1.49,0,0,0-1.42,1.18A13.33,13.33,0,0,0,140.5,36.86Z" transform="translate(-17.35 -19.62)"/><path class="cls-1" d="M150,29.35h2.79v1.89a5.62,5.62,0,0,1,1.42-1.69,3.69,3.69,0,0,1,1.86-.55v2.93a3.38,3.38,0,0,0-.49-.05,2.66,2.66,0,0,0-2.16.78,4.28,4.28,0,0,0-.63,2.67v9.18H150Z" transform="translate(-17.35 -19.62)"/><path class="cls-1" d="M166.85,19.62V44.51h-2.8V42.56a5,5,0,0,1-1.2,1.72,2.52,2.52,0,0,1-1.59.46,2.9,2.9,0,0,1-2.76-1.92,15.66,15.66,0,0,1-.88-6.06,24.23,24.23,0,0,1,.22-3.44,8.67,8.67,0,0,1,.67-2.39,3.2,3.2,0,0,1,1.15-1.38,3,3,0,0,1,1.67-.45,2.53,2.53,0,0,1,1.52.44,2.94,2.94,0,0,1,.6.58,5.45,5.45,0,0,1,.6.94V19.62Zm-6.33,17.24a15.09,15.09,0,0,0,.4,4.18,1.47,1.47,0,0,0,1.43,1.18c.63,0,1.08-.41,1.37-1.23a14.33,14.33,0,0,0,.42-4.05,14.53,14.53,0,0,0-.42-4.08c-.29-.82-.74-1.23-1.37-1.23a1.5,1.5,0,0,0-1.42,1.18A13.33,13.33,0,0,0,160.52,36.86Z" transform="translate(-17.35 -19.62)"/><path class="cls-1" d="M92.81,53.64V56.5a1.76,1.76,0,0,0-1.41-.72q-2.31,0-2.31,5c0,3.54.76,5.32,2.3,5.32a2.48,2.48,0,0,0,1.42-.57v2.62a4.81,4.81,0,0,1-2.26.58q-4.5,0-4.51-7.67a12.56,12.56,0,0,1,1.11-6,3.73,3.73,0,0,1,3.46-1.94A4.83,4.83,0,0,1,92.81,53.64Z" transform="translate(-17.35 -19.62)"/><path class="cls-1" d="M96,43.62h2.79V55.09a3.55,3.55,0,0,1,3.11-2,2.77,2.77,0,0,1,2.64,1.45,7.72,7.72,0,0,1,.44,3.18V68.51h-2.8l0-10.14a4.79,4.79,0,0,0-.36-2.18,1.34,1.34,0,0,0-1.26-.64,1.77,1.77,0,0,0-.81.16,1.3,1.3,0,0,0-.54.55,2.85,2.85,0,0,0-.3,1,8.81,8.81,0,0,0-.1,1.48v9.8H96Z" transform="translate(-17.35 -19.62)"/><path class="cls-1" d="M110.39,46.9a1.9,1.9,0,0,1,1.87,1.89,1.9,1.9,0,1,1-3.79,0,1.81,1.81,0,0,1,.56-1.32A2,2,0,0,1,110.39,46.9Zm-1.32,6.45h2.81V68.51h-2.81Z" transform="translate(-17.35 -19.62)"/><path class="cls-1" d="M118,53.35h2.8v1.74a3.55,3.55,0,0,1,3.11-2,2.75,2.75,0,0,1,2.63,1.45,7.55,7.55,0,0,1,.44,3.18V68.51h-2.8V58.37a4.63,4.63,0,0,0-.37-2.18,1.32,1.32,0,0,0-1.26-.64,1.8,1.8,0,0,0-.81.16,1.28,1.28,0,0,0-.53.55,3.07,3.07,0,0,0-.31,1,10.18,10.18,0,0,0-.09,1.48v9.8H118Z" transform="translate(-17.35 -19.62)"/><path class="cls-1" d="M139,63.4h2.6c-.2,3.56-1.67,5.34-4.39,5.34a4.51,4.51,0,0,1-2.09-.45,3.6,3.6,0,0,1-1.44-1.41,7.24,7.24,0,0,1-.84-2.41A18.59,18.59,0,0,1,132.6,61,12.32,12.32,0,0,1,133.72,55a3.74,3.74,0,0,1,3.47-1.93q4.56,0,4.56,8v.35h-6.41q0,4.86,1.94,4.86C138.45,66.34,139,65.36,139,63.4Zm-.15-3.94a10.54,10.54,0,0,0-.54-3.14,1.29,1.29,0,0,0-1.23-.83,1.26,1.26,0,0,0-1.23.83,10.13,10.13,0,0,0-.55,3.14Z" transform="translate(-17.35 -19.62)"/><path class="cls-1" d="M153.09,53.66v2.62a3.53,3.53,0,0,0-2.15-.76,1.78,1.78,0,0,0-.7.13,1.85,1.85,0,0,0-.57.36,1.75,1.75,0,0,0-.38.54,1.67,1.67,0,0,0-.14.67c0,.72.66,1.58,2,2.57a15.1,15.1,0,0,1,1.32,1.15,5,5,0,0,1,.8,1,4.37,4.37,0,0,1,.57,2.33,4.51,4.51,0,0,1-1.18,3.27,4.2,4.2,0,0,1-3.15,1.21A5,5,0,0,1,147,68V65.32a3.91,3.91,0,0,0,2.3.9,1.68,1.68,0,0,0,1.91-1.89,2.05,2.05,0,0,0-.35-1.21,3,3,0,0,0-.51-.58c-.23-.22-.52-.47-.86-.74a11.46,11.46,0,0,1-2.41-2.31,4.26,4.26,0,0,1-.61-2.33,4.15,4.15,0,0,1,1.13-3,4,4,0,0,1,3-1.15A5.17,5.17,0,0,1,153.09,53.66Z" transform="translate(-17.35 -19.62)"/><path class="cls-1" d="M164.91,63.4h2.61c-.2,3.56-1.67,5.34-4.39,5.34a4.51,4.51,0,0,1-2.09-.45,3.6,3.6,0,0,1-1.44-1.41,7,7,0,0,1-.85-2.41,19.56,19.56,0,0,1-.27-3.49A12.32,12.32,0,0,1,159.6,55a3.73,3.73,0,0,1,3.47-1.93q4.55,0,4.55,8v.35h-6.4q0,4.86,1.94,4.86C164.33,66.34,164.91,65.36,164.91,63.4Zm-.14-3.94a10.13,10.13,0,0,0-.55-3.14,1.33,1.33,0,0,0-2.46,0,10.54,10.54,0,0,0-.54,3.14Z" transform="translate(-17.35 -19.62)"/></g><g id="学院"><path class="cls-1" d="M29.6,43.92a2.38,2.38,0,0,1-1.24-.72.83.83,0,0,1-.08-1,3,3,0,0,1,1.22-1,11.81,11.81,0,0,1,2.62-1H24.2q-1.77,0-1.77-1.62a1.52,1.52,0,0,1,.44-1.23A2.05,2.05,0,0,1,24.2,37H37.7a4,4,0,0,1,2.06.47,1.42,1.42,0,0,1,.76,1.27,1.87,1.87,0,0,1-.4,1.22,3.18,3.18,0,0,1-1.61.82c-.44.12-.83.24-1.18.35s-.7.23-1,.37-.7.31-1.08.5l-1.35.67a9.89,9.89,0,0,1,2.19,1.44h7.89a1.77,1.77,0,0,1,1.35.41,1.72,1.72,0,0,1,.36,1.18,1.89,1.89,0,0,1-.36,1.17,1.6,1.6,0,0,1-1.35.48H37.67a6.69,6.69,0,0,1-.25,3A6.2,6.2,0,0,1,36,52.71a6.6,6.6,0,0,1-2.22,1.5,6.92,6.92,0,0,1-2.7.54c-.5,0-1,0-1.47-.07s-1-.13-1.5-.23-1.07-.23-1.66-.39-1.25-.35-2-.57a3.72,3.72,0,0,1-1.86-.88,1.51,1.51,0,0,1-.12-1.52A1.42,1.42,0,0,1,23.6,50a4.71,4.71,0,0,1,2.1.28c1.2.38,2.2.68,3,.89a9.19,9.19,0,0,0,2.34.31,2.29,2.29,0,0,0,1.26-.34,3,3,0,0,0,.9-.9,3.74,3.74,0,0,0,.51-1.31,5.75,5.75,0,0,0,.09-1.56H19.31A1.68,1.68,0,0,1,18,46.91a1.75,1.75,0,0,1-.39-1.16,1.7,1.7,0,0,1,.39-1.2,1.79,1.79,0,0,1,1.35-.42H30.23l-.31-.1Zm-3.6-14a2.51,2.51,0,0,1,.57,1.65h3.75a2.36,2.36,0,0,0-.15-.25A1.59,1.59,0,0,1,30,31l-.37-.66c-.09-.16-.18-.3-.27-.43a5,5,0,0,0-.33-.42c-.13-.15-.31-.37-.53-.65a5.66,5.66,0,0,1-.61-.81,1.22,1.22,0,0,1-.2-.61,1,1,0,0,1,.18-.56,3.06,3.06,0,0,1,.57-.6,1.79,1.79,0,0,1,.63-.36,1.46,1.46,0,0,1,.75,0,2.09,2.09,0,0,1,.8.36,3.29,3.29,0,0,1,.79.85l1,1.29a10.08,10.08,0,0,1,.72,1.08q.81,1.38.36,2.1h2a21.33,21.33,0,0,0,1.41-2.08c.38-.65.75-1.32,1.11-2a3.17,3.17,0,0,1,1-1.29A1.9,1.9,0,0,1,40.34,26a1.85,1.85,0,0,1,1.29.89,2,2,0,0,1-.27,1.81c-.34.62-.63,1.14-.87,1.55a10.05,10.05,0,0,1-.87,1.24h2.22a4.54,4.54,0,0,1,2.49.57,2.32,2.32,0,0,1,.87,2.1A8.29,8.29,0,0,1,45,35.84a7.74,7.74,0,0,1-.69,1.9,3.14,3.14,0,0,1-.54.81,1.34,1.34,0,0,1-.58.36,1.58,1.58,0,0,1-.69,0c-.25,0-.54-.1-.86-.18-.62-.16-.95-.48-1-1a4.44,4.44,0,0,1,.79-2.27q.48-.84-.69-.84H22.28a.81.81,0,0,0-.52.12.5.5,0,0,0-.14.39v2.22a1.46,1.46,0,0,1-.46,1.23,2.16,2.16,0,0,1-1.34.36,2.21,2.21,0,0,1-1.3-.31,1.51,1.51,0,0,1-.44-1.28V34.68a3.21,3.21,0,0,1,.78-2.4,3.5,3.5,0,0,1,2.49-.75h1.71v0a5.13,5.13,0,0,0-.57-.73l-1.08-1.22a2.25,2.25,0,0,1-.75-1.41,1.9,1.9,0,0,1,1.77-1.63,2.15,2.15,0,0,1,1.56.88c.46.5.87,1,1.23,1.43A11.63,11.63,0,0,1,26,29.88Z" transform="translate(-17.35 -19.62)"/><path class="cls-1" d="M72.5,28.26a6.5,6.5,0,0,1,1.74.2,2.35,2.35,0,0,1,1.08.6,2.18,2.18,0,0,1,.54,1.06A7.28,7.28,0,0,1,76,31.71c0,.22,0,.41,0,.57a4.53,4.53,0,0,1-.06.5q0,.26-.12.57c0,.21-.13.47-.23.79a2.55,2.55,0,0,1-.91,1.37,1.75,1.75,0,0,1-1.46.07,1.85,1.85,0,0,1-.87-.39,2.62,2.62,0,0,1,0,.54A1.85,1.85,0,0,1,72,37a1.77,1.77,0,0,1-1.35.4H61.94a1.77,1.77,0,0,1-1.35-.4,1.85,1.85,0,0,1-.36-1.25,1.94,1.94,0,0,1,0-.45,1.78,1.78,0,0,1-1.47.63,1.75,1.75,0,0,1-1.35-.43,2,2,0,0,1-.39-1.34V31a4.07,4.07,0,0,1,.06-.77c-.36.9-.73,1.88-1.12,2.94s-.78,2-1.16,2.94a1.59,1.59,0,0,0-.19.71.71.71,0,0,0,.16.43,10.5,10.5,0,0,1,2,3.41,11.53,11.53,0,0,1,.67,3.94q0,5.07-5,4.56a2.2,2.2,0,0,1-1.08-.31,1.39,1.39,0,0,1-.51-.68v5a1.76,1.76,0,0,1-.39,1.3,1.72,1.72,0,0,1-1.23.38A2.08,2.08,0,0,1,48,54.51a1.67,1.67,0,0,1-.42-1.35V29.88a3.91,3.91,0,0,1,.66-2.61,2.86,2.86,0,0,1,2.19-.72h4.2a2.76,2.76,0,0,1,2.21.86,2.53,2.53,0,0,1,.55,2.11,1.83,1.83,0,0,1,1.07-1,6.27,6.27,0,0,1,2.08-.27h3.81q-.78-1.86,1.11-2.4a1.84,1.84,0,0,1,2.4,1.26c0,.14.1.3.17.48s.14.4.22.66ZM50.9,46.5a1,1,0,0,1,.68-.82,2,2,0,0,1,1.12,0q1.38.3,1.41-1.23a5.87,5.87,0,0,0-.06-1.15,8,8,0,0,0-.3-1.31,9.35,9.35,0,0,0-.51-1.27,5.71,5.71,0,0,0-.69-1.1,4.59,4.59,0,0,1-1.12-2.11,2.8,2.8,0,0,1,.22-1.76,21.56,21.56,0,0,0,.93-2.32c.28-.83.57-1.67.87-2.51a1.33,1.33,0,0,0,.14-.64c0-.11-.14-.17-.32-.17H51.65c-.32,0-.52.07-.61.2a1.52,1.52,0,0,0-.14.79Zm8.37-3.6a1.63,1.63,0,0,1-1.35-.46,2.1,2.1,0,0,1-.36-1.31,1.75,1.75,0,0,1,.36-1.24,1.86,1.86,0,0,1,1.35-.38H74a1.93,1.93,0,0,1,1.35.38,1.66,1.66,0,0,1,.39,1.24,2,2,0,0,1-.39,1.31A1.68,1.68,0,0,1,74,42.9H70.46v6.57c0,.36,0,.65,0,.86a1.12,1.12,0,0,0,.12.46.36.36,0,0,0,.23.18,1.77,1.77,0,0,0,.37,0,3.18,3.18,0,0,0,.71-.07.67.67,0,0,0,.39-.33,1.87,1.87,0,0,0,.15-.77c0-.34,0-.81,0-1.41a2.34,2.34,0,0,1,.44-1.35,1.47,1.47,0,0,1,1.3-.63,2,2,0,0,1,1.35.44A2.17,2.17,0,0,1,76,48.57a17.47,17.47,0,0,1-.27,3.08A3.93,3.93,0,0,1,75,53.48a2.84,2.84,0,0,1-1.53.87,10.78,10.78,0,0,1-2.4.22,8.61,8.61,0,0,1-2.1-.21,2.34,2.34,0,0,1-1.27-.78A3.32,3.32,0,0,1,67,52a16.42,16.42,0,0,1-.17-2.59V42.9H64.94A18.22,18.22,0,0,1,64.37,47,10.68,10.68,0,0,1,63,50.07a10.05,10.05,0,0,1-2.26,2.4,19,19,0,0,1-3.2,2,2.58,2.58,0,0,1-1.75.36,1.87,1.87,0,0,1-1.13-1.08,1.5,1.5,0,0,1,0-1.51A3.83,3.83,0,0,1,56.18,51a8.37,8.37,0,0,0,3.69-3.09,11,11,0,0,0,1.47-5ZM70.67,34a1.89,1.89,0,0,1,1.26.36,3.82,3.82,0,0,1,.21-1.47q.24-.72.12-.93t-.81-.21H61.4a1,1,0,0,0-.67.14,1,1,0,0,0-.14.64v1.59a1,1,0,0,1,0,.33A1.76,1.76,0,0,1,61.94,34Z" transform="translate(-17.35 -19.62)"/></g><g id="academy"><path class="cls-1" d="M22.75,66.74a2.15,2.15,0,0,1-.85,1.05,2.54,2.54,0,0,1-1.25.28,3.09,3.09,0,0,1-1.34-.28,2.73,2.73,0,0,1-1-.81,3.73,3.73,0,0,1-.68-1.3,5.9,5.9,0,0,1-.24-1.76,6.32,6.32,0,0,1,.28-2,3.79,3.79,0,0,1,.73-1.34,2.7,2.7,0,0,1,1.06-.73,3.77,3.77,0,0,1,1.25-.21,2.09,2.09,0,0,1,1.27.4,2.39,2.39,0,0,1,.84,1.16v-.63A.83.83,0,0,1,23,60a.91.91,0,0,1,.72-.27,1,1,0,0,1,.71.27.83.83,0,0,1,.23.51V67.2a.87.87,0,0,1-.19.51.94.94,0,0,1-.77.27,1.28,1.28,0,0,1-.48-.07.79.79,0,0,1-.29-.2.51.51,0,0,1-.15-.25.82.82,0,0,1,0-.26Zm-3.48-2.82a3.21,3.21,0,0,0,.5,2,1.66,1.66,0,0,0,1.36.6,1.39,1.39,0,0,0,1.28-.68,3.59,3.59,0,0,0,.39-1.87A4,4,0,0,0,22.37,62a1.45,1.45,0,0,0-1.27-.74,1.56,1.56,0,0,0-1.35.64A3.27,3.27,0,0,0,19.27,63.92Z" transform="translate(-17.35 -19.62)"/><path class="cls-1" d="M25.44,63.92a5.56,5.56,0,0,1,.24-1.64,4,4,0,0,1,.74-1.37A3.55,3.55,0,0,1,27.63,60a3.79,3.79,0,0,1,1.69-.36,3.53,3.53,0,0,1,1.4.27,3,3,0,0,1,1,.6,1.48,1.48,0,0,1,.23.3,1.36,1.36,0,0,1,.17.39,1.49,1.49,0,0,1,0,.42A.76.76,0,0,1,32,62a1,1,0,0,1-.18.16.7.7,0,0,1-.29.13.65.65,0,0,1-.7-.25,2.44,2.44,0,0,0-.63-.55,1.51,1.51,0,0,0-.8-.2,1.74,1.74,0,0,0-.82.2,1.85,1.85,0,0,0-.64.54,2.53,2.53,0,0,0-.41.84,3.73,3.73,0,0,0-.15,1.09A3.16,3.16,0,0,0,27.5,65a2.35,2.35,0,0,0,.46.79,2,2,0,0,0,.64.49,1.76,1.76,0,0,0,.74.16,3.09,3.09,0,0,0,.47,0,1.14,1.14,0,0,0,.31-.09,1.07,1.07,0,0,0,.21-.13l.18-.14.28-.21a1.1,1.1,0,0,1,.32-.17.72.72,0,0,1,.36,0,1.07,1.07,0,0,1,.42.18.84.84,0,0,1,.39.47.93.93,0,0,1-.17.64,2.14,2.14,0,0,1-1,.85,4.26,4.26,0,0,1-1.74.32,4.42,4.42,0,0,1-1.68-.3A3.33,3.33,0,0,1,26.45,67a3.56,3.56,0,0,1-.76-1.33A5.58,5.58,0,0,1,25.44,63.92Z" transform="translate(-17.35 -19.62)"/><path class="cls-1" d="M38.17,66.74a2.15,2.15,0,0,1-.85,1.05,2.54,2.54,0,0,1-1.25.28,3.09,3.09,0,0,1-1.34-.28,2.73,2.73,0,0,1-1-.81,3.73,3.73,0,0,1-.68-1.3,5.9,5.9,0,0,1-.24-1.76,6.32,6.32,0,0,1,.28-2,3.79,3.79,0,0,1,.73-1.34,2.7,2.7,0,0,1,1.06-.73,3.77,3.77,0,0,1,1.25-.21,2.09,2.09,0,0,1,1.27.4,2.39,2.39,0,0,1,.84,1.16v-.63a.83.83,0,0,1,.23-.51.91.91,0,0,1,.72-.27,1,1,0,0,1,.71.27.83.83,0,0,1,.23.51V67.2a.87.87,0,0,1-.19.51.94.94,0,0,1-.77.27,1.28,1.28,0,0,1-.48-.07.79.79,0,0,1-.29-.2.51.51,0,0,1-.15-.25.82.82,0,0,1,0-.26Zm-3.48-2.82a3.21,3.21,0,0,0,.5,2,1.66,1.66,0,0,0,1.36.6,1.39,1.39,0,0,0,1.28-.68,3.59,3.59,0,0,0,.39-1.87A4,4,0,0,0,37.79,62a1.45,1.45,0,0,0-1.27-.74,1.56,1.56,0,0,0-1.35.64A3.27,3.27,0,0,0,34.69,63.92Z" transform="translate(-17.35 -19.62)"/><path class="cls-1" d="M46.26,66.74a1.79,1.79,0,0,1-.32.49,2.26,2.26,0,0,1-.49.43,2.59,2.59,0,0,1-.65.3,2.37,2.37,0,0,1-.76.11A2.85,2.85,0,0,1,41.76,67a3.88,3.88,0,0,1-.66-1.3,5.9,5.9,0,0,1-.24-1.76,6,6,0,0,1,.3-2,3.84,3.84,0,0,1,.77-1.34A2.77,2.77,0,0,1,43,59.81a3.54,3.54,0,0,1,1.18-.21,2.16,2.16,0,0,1,1.25.42,2.47,2.47,0,0,1,.87,1.14V57.38a.77.77,0,0,1,.23-.51.88.88,0,0,1,.71-.27.91.91,0,0,1,.71.28.75.75,0,0,1,.24.5v9.84a1.18,1.18,0,0,1,0,.25.76.76,0,0,1-.15.26.91.91,0,0,1-.3.19,1.28,1.28,0,0,1-.47.08,1.26,1.26,0,0,1-.48-.08.91.91,0,0,1-.3-.19.76.76,0,0,1-.15-.26,1.13,1.13,0,0,1,0-.25Zm-3.47-2.82a3.25,3.25,0,0,0,.5,2,1.66,1.66,0,0,0,1.35.6,1.34,1.34,0,0,0,1.25-.69,3.78,3.78,0,0,0,.4-1.86A3.7,3.7,0,0,0,45.85,62a1.45,1.45,0,0,0-1.24-.74,1.55,1.55,0,0,0-1.33.65A3.21,3.21,0,0,0,42.79,63.92Z" transform="translate(-17.35 -19.62)"/><path class="cls-1" d="M52.8,68.15a3.89,3.89,0,0,1-1.59-.3A3,3,0,0,1,50.08,67a3.7,3.7,0,0,1-.67-1.33,6.62,6.62,0,0,1,0-3.46,3.88,3.88,0,0,1,.68-1.38,3.22,3.22,0,0,1,1.13-.9,3.57,3.57,0,0,1,1.58-.33,3.2,3.2,0,0,1,1.45.3,2.69,2.69,0,0,1,1,.81,3.32,3.32,0,0,1,.57,1.18A5.55,5.55,0,0,1,56,63.32a2.2,2.2,0,0,1-.17,1,.62.62,0,0,1-.61.33H51.07a3,3,0,0,0,.08.67,1.63,1.63,0,0,0,.27.6,1.56,1.56,0,0,0,.54.44,2,2,0,0,0,.87.16,2,2,0,0,0,1.66-.66.69.69,0,0,1,.33-.24.54.54,0,0,1,.31,0,.71.71,0,0,1,.25.11l.19.12a.62.62,0,0,1,.23.62,1.46,1.46,0,0,1-.43.78,3.33,3.33,0,0,1-1,.66A4,4,0,0,1,52.8,68.15Zm1.33-5a4.2,4.2,0,0,0-.06-.72,1.63,1.63,0,0,0-.22-.62,1.13,1.13,0,0,0-.42-.42,1.25,1.25,0,0,0-.68-.16,1.81,1.81,0,0,0-.87.19,1.39,1.39,0,0,0-.51.48,1.72,1.72,0,0,0-.24.63,3.59,3.59,0,0,0-.06.62Z" transform="translate(-17.35 -19.62)"/><path class="cls-1" d="M67.18,63.18a5.17,5.17,0,0,0-.06-.84,1.47,1.47,0,0,0-.22-.6.93.93,0,0,0-.44-.36,1.87,1.87,0,0,0-.72-.12,2.86,2.86,0,0,0-.67.08,1.18,1.18,0,0,0-.53.28,1.25,1.25,0,0,0-.35.56,2.7,2.7,0,0,0-.13.93v4.26a.51.51,0,0,1-.26.44,1.36,1.36,0,0,1-.68.19,1.14,1.14,0,0,1-.69-.17.57.57,0,0,1-.26-.46V63.18a2.87,2.87,0,0,0-.29-1.44,1.25,1.25,0,0,0-1.16-.48,2.8,2.8,0,0,0-.67.08,1.13,1.13,0,0,0-.53.28,1.33,1.33,0,0,0-.34.56,2.7,2.7,0,0,0-.13.93v4.26a.54.54,0,0,1-.26.45,1.24,1.24,0,0,1-.71.18,1.13,1.13,0,0,1-.69-.18.56.56,0,0,1-.23-.45V60.3a.47.47,0,0,1,.23-.41,1.36,1.36,0,0,1,.73-.14,1.23,1.23,0,0,1,.71.15.5.5,0,0,1,.19.4v.8A2.9,2.9,0,0,1,59.76,60a1.71,1.71,0,0,1,1.17-.43,2.15,2.15,0,0,1,2.29,1.59,3.52,3.52,0,0,1,1.07-1.14,2.85,2.85,0,0,1,1.59-.45,3.52,3.52,0,0,1,1.1.18,3,3,0,0,1,1,.53,2.59,2.59,0,0,1,1,2v5a.74.74,0,0,1-.12.42c-.07.13-.29.2-.65.21a1.39,1.39,0,0,1-.75-.13.56.56,0,0,1-.21-.5Z" transform="translate(-17.35 -19.62)"/><path class="cls-1" d="M75.25,66.32a3.4,3.4,0,0,1-.31.5,2.75,2.75,0,0,1-.46.44,2.06,2.06,0,0,1-.61.31,2.58,2.58,0,0,1-.76.11A3.3,3.3,0,0,1,72,67.5a2.43,2.43,0,0,1-.89-.53,2.39,2.39,0,0,1-.61-.89,3.26,3.26,0,0,1-.22-1.26V60.38a.54.54,0,0,1,.24-.45,1.13,1.13,0,0,1,.67-.18,1.16,1.16,0,0,1,.68.18.53.53,0,0,1,.27.45v3.7a5.17,5.17,0,0,0,.06.84,1.63,1.63,0,0,0,.21.6,1,1,0,0,0,.45.36,1.83,1.83,0,0,0,.72.12,2.73,2.73,0,0,0,.66-.07,1.13,1.13,0,0,0,.53-.28,1.4,1.4,0,0,0,.34-.56,2.7,2.7,0,0,0,.13-.93V60.38a.57.57,0,0,1,.26-.45,1.17,1.17,0,0,1,.67-.18,1.11,1.11,0,0,1,.67.19.57.57,0,0,1,.26.44v7.11a2.7,2.7,0,0,1-.28,1.25,2.87,2.87,0,0,1-.8,1,3.62,3.62,0,0,1-1.19.61,4.65,4.65,0,0,1-1.46.2c-.3,0-.56,0-.79,0a3,3,0,0,1-.68-.14,4.34,4.34,0,0,1-.63-.28,6.45,6.45,0,0,1-.63-.43,1.06,1.06,0,0,1-.43-.58,1,1,0,0,1,0-.57.71.71,0,0,1,.4-.51.54.54,0,0,1,.52.15,2.72,2.72,0,0,0,.89.5,3.62,3.62,0,0,0,1.31.17,2.88,2.88,0,0,0,.82-.13,2.17,2.17,0,0,0,.59-.3,1.25,1.25,0,0,0,.36-.41,1,1,0,0,0,.12-.45Z" transform="translate(-17.35 -19.62)"/></g></svg>